<svg width="24" height="24" viewBox="0 0 24 24" fill="none" xmlns="http://www.w3.org/2000/svg">
<path d="M15.282 1.77464C15.4645 2.00095 15.5575 2.30639 15.7427 2.91651L19.8032 16.2545C18.2782 15.4627 16.6412 14.9085 14.9488 14.6111L12.3055 5.67745C12.2846 5.60603 12.2411 5.54332 12.1815 5.49873C12.122 5.45414 12.0496 5.43008 11.9752 5.43016C11.9008 5.43025 11.8284 5.45447 11.769 5.4992C11.7095 5.54393 11.6662 5.60674 11.6455 5.6782L9.03377 14.6066C7.33407 14.903 5.68981 15.4581 4.1582 16.2524L8.23783 2.9137C8.42458 2.30432 8.51758 1.99945 8.69983 1.77314C8.86079 1.57379 9.07013 1.41899 9.30789 1.32351C9.57658 1.2157 9.89589 1.2157 10.5332 1.2157H13.4475C14.0854 1.2157 14.4047 1.2157 14.6743 1.32426C14.9121 1.41998 15.1212 1.57504 15.282 1.77464ZM15.7676 16.889C15.0983 17.4616 13.7621 17.852 12.2233 17.852C10.3352 17.852 8.75177 17.2638 8.33195 16.4728C8.18195 16.9261 8.1482 17.4448 8.1482 17.7766C8.1482 17.7766 8.04939 19.4032 9.18095 20.5348C9.18093 20.3951 9.20842 20.2568 9.26186 20.1278C9.3153 19.9987 9.39364 19.8815 9.4924 19.7828C9.59116 19.684 9.70841 19.6057 9.83745 19.5523C9.96649 19.4989 10.1048 19.4714 10.2445 19.4714C11.2513 19.4714 11.2508 20.3495 11.25 21.0629V21.1259C11.25 22.2084 11.9113 23.1358 12.8518 23.5269C12.7068 23.2291 12.6316 22.9022 12.6321 22.571C12.6321 21.5383 13.2377 21.1544 13.9423 20.7076C14.5028 20.3525 15.1253 19.9576 15.5537 19.166C15.785 18.7395 15.9059 18.2618 15.9053 17.7766C15.9054 17.4754 15.859 17.1761 15.7676 16.889Z" fill="black"/>
</svg>
