<svg width="24" height="24" viewBox="0 0 24 24" fill="none" xmlns="http://www.w3.org/2000/svg">
<g clip-path="url(#clip0_22_95)">
<path d="M0.375 0.375V23.625H23.625V0.375H0.375ZM13.05 18.4875C13.05 20.775 11.7 21.825 9.75 21.825C8.025 21.825 7.0125 20.925 6.4875 19.8L8.2875 18.675C8.5875 19.3125 8.925 19.8 9.7125 19.8C10.4625 19.8 10.875 19.5375 10.875 18.4125V11.0625H13.05V18.4875ZM18.225 21.825C16.2 21.825 14.8875 20.8125 14.2125 19.6125L16.0125 18.5625C16.5 19.3125 17.1375 19.875 18.1875 19.875C19.0875 19.875 19.65 19.4625 19.65 18.75C19.65 18 19.0875 17.7375 18.075 17.2875L17.55 17.0625C15.975 16.425 14.925 15.525 14.925 13.725C14.925 12.075 16.125 10.875 18.1125 10.875C19.5 10.875 20.475 11.3625 21.1875 12.6375L19.5 13.7625C19.125 13.125 18.75 12.825 18.075 12.825C17.4375 12.825 17.025 13.2375 17.025 13.7625C17.025 14.4 17.4375 14.6625 18.3375 15.075L18.8625 15.3C20.7 16.0875 21.7875 16.875 21.7875 18.75C21.825 20.7375 20.2875 21.825 18.225 21.825Z" fill="black"/>
</g>
<defs>
<clipPath id="clip0_22_95">
<rect width="24" height="24" fill="white"/>
</clipPath>
</defs>
</svg>
