<svg width="24" height="24" viewBox="0 0 24 24" fill="none" xmlns="http://www.w3.org/2000/svg">
<path d="M11.9999 10.406C11.5772 10.406 11.1717 10.5739 10.8728 10.8729C10.5739 11.1718 10.4059 11.5772 10.4059 12C10.4059 12.4228 10.5739 12.8282 10.8728 13.1271C11.1717 13.4261 11.5772 13.594 11.9999 13.594C12.4227 13.594 12.8281 13.4261 13.1271 13.1271C13.426 12.8282 13.5939 12.4228 13.5939 12C13.5939 11.5772 13.426 11.1718 13.1271 10.8729C12.8281 10.5739 12.4227 10.406 11.9999 10.406ZM17.4989 6.076C17.7146 6.07083 17.9302 6.08894 18.1419 6.13C18.3097 6.16288 18.4715 6.22086 18.6219 6.302C18.7313 6.36324 18.8294 6.44272 18.9119 6.537C18.9924 6.62975 19.0551 6.73653 19.0969 6.852C19.148 6.99746 19.1763 7.14991 19.1809 7.304C19.1879 7.499 19.1659 7.702 19.1229 7.907C19.0653 8.17318 18.9836 8.43359 18.8789 8.685C18.7419 9.019 18.5749 9.345 18.3889 9.663C18.1423 10.079 17.8699 10.4813 17.5719 10.87C17.4269 11.061 17.2719 11.246 17.1169 11.431C16.8976 11.193 16.6733 10.9597 16.4439 10.731C15.7952 10.0936 15.1108 9.49368 14.3939 8.934L14.3759 8.92L13.9149 9.512L13.9329 9.526C14.627 10.0676 15.2894 10.6485 15.9169 11.266C16.1576 11.5027 16.3919 11.746 16.6199 11.996C16.5209 12.104 16.4259 12.216 16.3239 12.322C16.2246 12.426 16.1243 12.5287 16.0229 12.63L16.5529 13.16C16.6589 13.0547 16.7633 12.948 16.8659 12.84C16.9509 12.752 17.0299 12.658 17.1139 12.568C17.1789 12.646 17.2489 12.72 17.3119 12.799C17.6398 13.2011 17.9434 13.6226 18.2209 14.061C18.4319 14.397 18.6249 14.742 18.7849 15.097C18.9055 15.3568 19.0035 15.6264 19.0779 15.903C19.1347 16.111 19.1689 16.3246 19.1799 16.54C19.1879 16.718 19.1729 16.891 19.1299 17.048C19.0972 17.1688 19.0441 17.2831 18.9729 17.386C18.9027 17.4866 18.8136 17.5733 18.7119 17.642C18.5832 17.7268 18.4423 17.7912 18.2939 17.833C18.1059 17.887 17.9039 17.914 17.6939 17.923C17.4279 17.933 17.1559 17.913 16.8799 17.873C16.5193 17.8181 16.1628 17.7386 15.8129 17.635C15.3489 17.498 14.8929 17.328 14.4439 17.135H14.4429C13.8581 16.8789 13.2873 16.5918 12.7329 16.275L12.7079 16.26C13.2868 15.8864 13.8493 15.488 14.3939 15.066L14.1839 14.796L14.3949 15.066L14.4129 15.051L13.9499 14.461L13.9329 14.475C13.2397 15.0177 12.5158 15.5202 11.7649 15.98C11.1743 16.3407 10.5644 16.6689 9.93793 16.963C9.46852 17.1836 8.98633 17.376 8.49393 17.539C8.12015 17.6625 7.73866 17.7614 7.35193 17.835C7.0707 17.8894 6.78532 17.9195 6.49893 17.925C6.28325 17.9298 6.06767 17.9114 5.85593 17.87C5.6882 17.8371 5.52638 17.7791 5.37593 17.698C5.15622 17.5787 4.98739 17.3836 4.90093 17.149C4.84977 17.0032 4.82144 16.8504 4.81693 16.696C4.81175 16.4934 4.83123 16.2909 4.87493 16.093C4.92993 15.832 5.01493 15.573 5.11993 15.316C5.26076 14.9792 5.42448 14.6524 5.60993 14.338C5.9792 13.7117 6.40461 13.1203 6.88093 12.571C7.11293 12.8223 7.35027 13.068 7.59293 13.308C8.23284 13.9335 8.90722 14.5228 9.61293 15.073L10.0739 14.482C9.3906 13.9496 8.7379 13.379 8.11893 12.773C7.86493 12.523 7.61793 12.2667 7.37793 12.004C7.47593 11.8947 7.57427 11.7863 7.67293 11.679C7.77525 11.5723 7.87858 11.4667 7.98293 11.362L7.45293 10.832C7.34493 10.9407 7.23793 11.05 7.13193 11.16C7.04693 11.249 6.96693 11.343 6.88393 11.433C6.82893 11.367 6.76993 11.305 6.71493 11.238C6.38636 10.8344 6.08055 10.4127 5.79893 9.975C5.58593 9.64127 5.39519 9.29385 5.22793 8.935C5.10048 8.66541 4.99741 8.38496 4.91993 8.097C4.86314 7.88895 4.82894 7.67538 4.81793 7.46C4.80904 7.28945 4.82589 7.11853 4.86793 6.953C4.90193 6.82833 4.95427 6.71533 5.02493 6.614C5.09293 6.516 5.18393 6.428 5.28593 6.358C5.415 6.2735 5.55633 6.20941 5.70493 6.168C5.90021 6.11383 6.10136 6.08361 6.30393 6.078C6.57615 6.06987 6.84856 6.08594 7.11793 6.126C7.47866 6.18157 7.83516 6.26175 8.18493 6.366C8.65098 6.50478 9.10815 6.67175 9.55393 6.866C10.1488 7.12399 10.7284 7.4158 11.2899 7.74C10.7082 8.11603 10.143 8.51707 9.59593 8.942L10.0579 9.532C10.7394 8.99763 11.4506 8.50217 12.1879 8.048C12.7794 7.68482 13.3903 7.35433 14.0179 7.058C14.4919 6.836 14.9739 6.638 15.4659 6.475C15.8409 6.34893 16.2237 6.24771 16.6119 6.172C16.9099 6.116 17.2069 6.08 17.4989 6.076ZM17.4889 5.326C17.1485 5.33316 16.8083 5.36929 16.4739 5.434C16.0523 5.5168 15.6364 5.6267 15.2289 5.763C14.7076 5.93812 14.1971 6.14381 13.6999 6.379C13.1169 6.651 12.5539 6.961 12.0039 7.289C11.3124 6.87043 10.5934 6.49892 9.85193 6.177C9.37792 5.97124 8.89206 5.79392 8.39693 5.646C8.01302 5.53082 7.62135 5.44326 7.22493 5.384C6.91074 5.33551 6.59263 5.31709 6.27493 5.329C6.02093 5.339 5.75893 5.372 5.49893 5.446C5.27259 5.50939 5.05787 5.60865 4.86293 5.74C4.50931 5.98031 4.25462 6.3405 4.14593 6.754C4.08227 6.9942 4.05629 7.24283 4.06893 7.491C4.08201 7.76084 4.12459 8.02843 4.19593 8.289C4.28547 8.61806 4.40289 8.93889 4.54693 9.248C4.72916 9.63692 4.93626 10.0137 5.16693 10.376C5.46277 10.8396 5.78566 11.2854 6.13393 11.711C6.21393 11.809 6.29993 11.901 6.38193 11.997C6.19178 12.2183 6.00771 12.4447 5.82993 12.676C5.51893 13.084 5.22593 13.51 4.96293 13.958C4.75816 14.303 4.57836 14.6623 4.42493 15.033C4.30358 15.3266 4.20887 15.6305 4.14193 15.941C4.08558 16.1977 4.06106 16.4603 4.06893 16.723C4.07526 16.9578 4.11915 17.1901 4.19893 17.411V17.412C4.34745 17.8123 4.63493 18.146 5.00893 18.352C5.22676 18.4719 5.4619 18.5573 5.70593 18.605C5.97091 18.6577 6.24085 18.6811 6.51093 18.675C6.83884 18.6678 7.1656 18.6336 7.48793 18.573L7.48893 18.572C7.90934 18.4949 8.32372 18.388 8.72893 18.252C9.24911 18.0787 9.75865 17.875 10.2549 17.642C10.8513 17.3624 11.4328 17.052 11.9969 16.712C12.1176 16.784 12.2396 16.8553 12.3629 16.926C12.9408 17.2582 13.5368 17.5579 14.1479 17.824C14.622 18.0294 15.1078 18.2064 15.6029 18.354C15.9829 18.466 16.3749 18.558 16.7749 18.616C17.0893 18.6631 17.4072 18.6819 17.7249 18.672C17.9789 18.662 18.2409 18.628 18.5009 18.554C18.7189 18.491 18.9369 18.398 19.1369 18.26C19.4899 18.019 19.7444 17.6591 19.8539 17.246C19.9219 16.998 19.9409 16.749 19.9309 16.51C19.9179 16.2398 19.8753 15.9719 19.8039 15.711C19.7177 15.3947 19.6056 15.086 19.4689 14.788C19.2893 14.3996 19.0848 14.0232 18.8569 13.661C18.5618 13.1995 18.2417 12.7545 17.8979 12.328C17.8079 12.217 17.7099 12.112 17.6179 12.004C17.8073 11.7827 17.9913 11.5563 18.1699 11.325C18.4809 10.916 18.7739 10.49 19.0369 10.042C19.2417 9.69697 19.4215 9.33772 19.5749 8.967C19.6962 8.67375 19.7909 8.3702 19.8579 8.06C19.9109 7.81 19.9409 7.547 19.9309 7.277C19.9246 7.0422 19.8807 6.80992 19.8009 6.589V6.588C19.6524 6.18765 19.3649 5.85403 18.9909 5.648C18.773 5.52842 18.5379 5.4434 18.2939 5.396C18.029 5.34335 17.759 5.31988 17.4889 5.326ZM11.9999 0L22.3919 6V18L11.9999 24L1.60693 18V6L11.9999 0Z" fill="black"/>
</svg>
